<svg width="204" height="249" viewBox="0 0 204 249" fill="none" xmlns="http://www.w3.org/2000/svg">
<g filter="url(#filter0_d_144_7)">
<path d="M163.454 191.714C163.454 191.714 151.627 232.637 129.854 232.637C129.854 232.637 113.843 234.146 116.93 217.129C120.017 200.113 127.269 168.452 122.961 161.129C118.653 153.806 116.93 146.914 103.362 147.345C89.793 147.775 85.1203 154.339 82.038 161.129C78.9557 167.919 85.6258 200.618 87.2072 217.129C88.7887 233.64 76.8695 232.637 76.8695 232.637C49.2111 232.637 39.3918 191.714 39.3918 191.714C39.3918 191.714 34.0509 179.897 33.7917 122.36C33.7917 122.36 31.4528 109.777 16.5613 79.7134C16.5613 79.7134 11.1551 53.4363 24.7462 36.6364C38.3373 19.8364 50.8556 16.3056 61.7924 15.5288C72.7292 14.7521 97.5779 29.9195 109.177 30.175C120.776 30.4305 138.469 18.5989 150.962 19.8364C163.454 21.074 163.454 22.3385 178.1 36.6364C192.746 50.9343 186.716 79.7134 186.716 79.7134C174.769 110.789 169.054 122.36 169.054 122.36C170.297 172.311 163.454 191.714 163.454 191.714Z" fill="black" fill-opacity="0.33" shape-rendering="crispEdges"/>
<path d="M163.454 191.714C163.454 191.714 151.627 232.637 129.854 232.637C129.854 232.637 113.843 234.146 116.93 217.129C120.017 200.113 127.269 168.452 122.961 161.129C118.653 153.806 116.93 146.914 103.362 147.345C89.793 147.775 85.1203 154.339 82.038 161.129C78.9557 167.919 85.6258 200.618 87.2072 217.129C88.7887 233.64 76.8695 232.637 76.8695 232.637C49.2111 232.637 39.3918 191.714 39.3918 191.714C39.3918 191.714 34.0509 179.897 33.7917 122.36C33.7917 122.36 31.4528 109.777 16.5613 79.7134C16.5613 79.7134 11.1551 53.4363 24.7462 36.6364C38.3373 19.8364 50.8556 16.3056 61.7924 15.5288C72.7292 14.7521 97.5779 29.9195 109.177 30.175C120.776 30.4305 138.469 18.5989 150.962 19.8364C163.454 21.074 163.454 22.3385 178.1 36.6364C192.746 50.9343 186.716 79.7134 186.716 79.7134C174.769 110.789 169.054 122.36 169.054 122.36C170.297 172.311 163.454 191.714 163.454 191.714Z" stroke="white" stroke-opacity="0.09" shape-rendering="crispEdges"/>
</g>
<defs>
<filter id="filter0_d_144_7" x="0" y="0" width="203.445" height="248.171" filterUnits="userSpaceOnUse" color-interpolation-filters="sRGB">
<feFlood flood-opacity="0" result="BackgroundImageFix"/>
<feColorMatrix in="SourceAlpha" type="matrix" values="0 0 0 0 0 0 0 0 0 0 0 0 0 0 0 0 0 0 127 0" result="hardAlpha"/>
<feOffset/>
<feGaussianBlur stdDeviation="7.5"/>
<feComposite in2="hardAlpha" operator="out"/>
<feColorMatrix type="matrix" values="0 0 0 0 0 0 0 0 0 0 0 0 0 0 0 0 0 0 0.25 0"/>
<feBlend mode="normal" in2="BackgroundImageFix" result="effect1_dropShadow_144_7"/>
<feBlend mode="normal" in="SourceGraphic" in2="effect1_dropShadow_144_7" result="shape"/>
</filter>
</defs>
</svg>
