<svg width="173" height="218" viewBox="0 0 173 218" fill="none" xmlns="http://www.w3.org/2000/svg">
<path d="M147.954 176.214C147.954 176.214 136.127 217.137 114.354 217.137C114.354 217.137 98.3434 218.646 101.43 201.629C104.517 184.613 111.769 152.952 107.461 145.629C103.153 138.306 101.43 131.414 87.8617 131.845C74.293 132.275 69.6203 138.839 66.538 145.629C63.4557 152.419 70.1258 185.118 71.7072 201.629C73.2887 218.14 61.3695 217.137 61.3695 217.137C33.7111 217.137 23.8918 176.214 23.8918 176.214C23.8918 176.214 18.5509 164.397 18.2917 106.86C18.2917 106.86 15.9528 94.2774 1.06128 64.2134C1.06128 64.2134 -4.34491 37.9363 9.2462 21.1364C22.8373 4.33644 35.3556 0.805603 46.2924 0.0288437C57.2292 -0.747915 82.0779 14.4195 93.6771 14.675C105.276 14.9305 122.969 3.09888 135.462 4.33644C147.954 5.574 147.954 6.83847 162.6 21.1364C177.246 35.4343 171.216 64.2134 171.216 64.2134C159.269 95.2889 153.554 106.86 153.554 106.86C154.797 156.811 147.954 176.214 147.954 176.214Z" fill="black" fill-opacity="0.05"/>
</svg>
